<svg xmlns="http://www.w3.org/2000/svg" width="512" height="512" viewBox="0 0 512 512">
  <!-- Background -->
  <rect width="512" height="512" rx="80" fill="#16a34a"/>
  
  <!-- Inner green lighter background -->
  <rect x="20" y="20" width="472" height="472" rx="65" fill="#15803d" opacity="0.3"/>
  
  <!-- Quran book shape -->
  <rect x="120" y="120" width="272" height="10" rx="5" fill="white" opacity="0.3"/>
  <rect x="120" y="382" width="272" height="10" rx="5" fill="white" opacity="0.3"/>
  
  <!-- Open book icon -->
  <path d="M256 160 L160 190 L160 350 L256 320 L256 160Z" fill="white" opacity="0.9"/>
  <path d="M256 160 L352 190 L352 350 L256 320 L256 160Z" fill="white" opacity="0.7"/>
  
  <!-- Spine -->
  <rect x="250" y="160" width="12" height="160" rx="4" fill="#16a34a" opacity="0.8"/>
  
  <!-- Lines on book (text lines) -->
  <rect x="175" y="220" width="60" height="6" rx="3" fill="#16a34a" opacity="0.4"/>
  <rect x="175" y="240" width="50" height="6" rx="3" fill="#16a34a" opacity="0.4"/>
  <rect x="175" y="260" width="55" height="6" rx="3" fill="#16a34a" opacity="0.4"/>
  <rect x="175" y="280" width="45" height="6" rx="3" fill="#16a34a" opacity="0.4"/>
  
  <rect x="277" y="220" width="60" height="6" rx="3" fill="#16a34a" opacity="0.3"/>
  <rect x="277" y="240" width="50" height="6" rx="3" fill="#16a34a" opacity="0.3"/>
  <rect x="277" y="260" width="55" height="6" rx="3" fill="#16a34a" opacity="0.3"/>
  <rect x="277" y="280" width="45" height="6" rx="3" fill="#16a34a" opacity="0.3"/>
  
  <!-- Star above -->
  <path d="M256 90 L262 108 L282 108 L267 120 L272 138 L256 128 L240 138 L245 120 L230 108 L250 108 Z" fill="#fbbf24"/>
</svg>
